<?xml version="1.0" encoding="UTF-8"?>
<svg xmlns="http://www.w3.org/2000/svg" xmlns:xlink="http://www.w3.org/1999/xlink" width="854" height="480" viewBox="0 0 854 480">
<defs>
<g>
<g id="glyph-0-0">
<path d="M 2.414062 -1.015625 L 2.414062 0 L 1.140625 0 L 1.140625 -10.65625 L 2.414062 -10.65625 L 2.414062 -5.957031 L 2.441406 -5.957031 C 3.003906 -6.898438 3.832031 -7.371094 4.914062 -7.371094 C 5.816406 -7.371094 6.535156 -7.050781 7.066406 -6.414062 C 7.597656 -5.78125 7.863281 -4.910156 7.863281 -3.808594 C 7.863281 -2.59375 7.566406 -1.625 6.96875 -0.90625 C 6.371094 -0.191406 5.578125 0.167969 4.582031 0.167969 C 3.644531 0.167969 2.933594 -0.226562 2.441406 -1.015625 L 2.414062 -1.015625 M 2.410156 -2.960938 C 2.410156 -2.378906 2.597656 -1.890625 2.976562 -1.488281 C 3.351562 -1.085938 3.824219 -0.886719 4.394531 -0.886719 C 5.070312 -0.886719 5.601562 -1.144531 5.984375 -1.667969 C 6.363281 -2.1875 6.554688 -2.90625 6.554688 -3.828125 C 6.554688 -4.585938 6.378906 -5.191406 6.023438 -5.640625 C 5.667969 -6.089844 5.179688 -6.316406 4.5625 -6.316406 C 3.9375 -6.316406 3.421875 -6.089844 3.015625 -5.644531 C 2.613281 -5.199219 2.410156 -4.628906 2.410156 -3.9375 Z "/>
</g>
<g id="glyph-0-1">
<path d="M 8.3125 -4.375 L 7.1875 -4.375 L 4.882812 -8.699219 L 4.851562 -8.699219 L 2.703125 -4.375 L 1.59375 -4.375 L 4.570312 -10.253906 L 5.105469 -10.253906 Z "/>
</g>
<g id="glyph-0-2">
<path d="M 5.554688 -7.441406 C 5.554688 -7.984375 5.382812 -8.410156 5.039062 -8.71875 C 4.695312 -9.03125 4.230469 -9.1875 3.640625 -9.1875 C 3.222656 -9.1875 2.800781 -9.078125 2.375 -8.867188 C 1.949219 -8.65625 1.554688 -8.351562 1.183594 -7.957031 L 1.183594 -9.191406 C 1.515625 -9.535156 1.890625 -9.796875 2.308594 -9.980469 C 2.726562 -10.164062 3.21875 -10.253906 3.78125 -10.253906 C 4.695312 -10.253906 5.425781 -10.007812 5.984375 -9.523438 C 6.539062 -9.03125 6.816406 -8.371094 6.816406 -7.539062 C 6.816406 -6.796875 6.644531 -6.15625 6.304688 -5.613281 C 5.964844 -5.070312 5.382812 -4.515625 4.558594 -3.945312 C 3.714844 -3.363281 3.152344 -2.945312 2.867188 -2.695312 C 2.582031 -2.445312 2.386719 -2.203125 2.273438 -1.972656 C 2.160156 -1.742188 2.101562 -1.460938 2.101562 -1.132812 L 7.117188 -1.132812 L 7.117188 0 L 0.773438 0 L 0.773438 -0.5 C 0.773438 -1.082031 0.855469 -1.578125 1.011719 -1.980469 C 1.171875 -2.386719 1.433594 -2.78125 1.796875 -3.167969 C 2.160156 -3.550781 2.730469 -4.011719 3.503906 -4.550781 C 4.292969 -5.105469 4.832031 -5.59375 5.121094 -6.011719 C 5.410156 -6.429688 5.554688 -6.90625 5.554688 -7.441406 Z "/>
</g>
<g id="glyph-0-3">
</g>
<g id="glyph-0-4">
<path d="M 8.273438 -5.203125 L 1.640625 -5.203125 L 1.640625 -6.183594 L 8.273438 -6.183594 L 8.273438 -5.203125 M 8.273438 -2.195312 L 1.640625 -2.195312 L 1.640625 -3.175781 L 8.273438 -3.175781 Z "/>
</g>
<g id="glyph-0-5">
<path d="M 3.710938 0 L 3.710938 -8.625 C 3.511719 -8.425781 3.171875 -8.203125 2.699219 -7.957031 C 2.222656 -7.707031 1.785156 -7.535156 1.378906 -7.433594 L 1.378906 -8.683594 C 1.914062 -8.832031 2.484375 -9.066406 3.09375 -9.390625 C 3.699219 -9.714844 4.167969 -10.019531 4.492188 -10.304688 L 4.972656 -10.304688 L 4.972656 0 Z "/>
</g>
<g id="glyph-0-6">
<path d="M 6.628906 -8.789062 C 6.101562 -9.058594 5.554688 -9.191406 4.980469 -9.191406 C 4.109375 -9.191406 3.40625 -8.8125 2.878906 -8.054688 C 2.347656 -7.292969 2.078125 -6.257812 2.070312 -4.941406 L 2.101562 -4.941406 C 2.582031 -5.867188 3.34375 -6.328125 4.386719 -6.328125 C 5.261719 -6.328125 5.957031 -6.042969 6.476562 -5.476562 C 7 -4.90625 7.257812 -4.152344 7.257812 -3.210938 C 7.257812 -2.222656 6.957031 -1.414062 6.355469 -0.78125 C 5.757812 -0.148438 4.988281 0.167969 4.054688 0.167969 C 3.03125 0.167969 2.226562 -0.230469 1.644531 -1.03125 C 1.058594 -1.832031 0.769531 -2.96875 0.769531 -4.441406 C 0.769531 -6.21875 1.152344 -7.632812 1.917969 -8.679688 C 2.683594 -9.730469 3.691406 -10.253906 4.941406 -10.253906 C 5.65625 -10.253906 6.21875 -10.15625 6.628906 -9.960938 L 6.628906 -8.789062 M 2.148438 -3.300781 C 2.148438 -2.636719 2.324219 -2.066406 2.679688 -1.59375 C 3.03125 -1.121094 3.503906 -0.886719 4.089844 -0.886719 C 4.644531 -0.886719 5.09375 -1.089844 5.441406 -1.496094 C 5.789062 -1.90625 5.964844 -2.429688 5.964844 -3.074219 C 5.964844 -3.765625 5.800781 -4.308594 5.472656 -4.695312 C 5.144531 -5.082031 4.679688 -5.273438 4.074219 -5.273438 C 3.503906 -5.273438 3.039062 -5.078125 2.683594 -4.6875 C 2.328125 -4.296875 2.148438 -3.835938 2.148438 -3.300781 Z "/>
</g>
</g>
</defs>
<g fill="rgb(100%, 100%, 100%)" fill-opacity="1">
<use xlink:href="#glyph-0-0" x="30" y="34.107422"/>
<use xlink:href="#glyph-0-1" x="39" y="34.107422"/>
<use xlink:href="#glyph-0-2" x="49" y="34.107422"/>
<use xlink:href="#glyph-0-3" x="57" y="34.107422"/>
<use xlink:href="#glyph-0-4" x="61" y="34.107422"/>
<use xlink:href="#glyph-0-3" x="71" y="34.107422"/>
<use xlink:href="#glyph-0-5" x="75" y="34.107422"/>
<use xlink:href="#glyph-0-6" x="83" y="34.107422"/>
</g>
</svg>
