<?xml version="1.0" encoding="UTF-8"?>
<svg xmlns="http://www.w3.org/2000/svg" xmlns:xlink="http://www.w3.org/1999/xlink" width="854" height="480" viewBox="0 0 854 480">
<defs>
<g>
<g id="glyph-0-0">
<path d="M 4.074219 -0.21875 C 3.707031 0.00390625 3.265625 0.113281 2.746094 0.113281 C 2.054688 0.113281 1.496094 -0.109375 1.070312 -0.554688 C 0.648438 -1 0.4375 -1.578125 0.4375 -2.289062 C 0.4375 -3.074219 0.667969 -3.707031 1.121094 -4.191406 C 1.578125 -4.671875 2.1875 -4.914062 2.953125 -4.914062 C 3.390625 -4.914062 3.765625 -4.835938 4.078125 -4.679688 L 4.078125 -3.835938 C 3.742188 -4.085938 3.367188 -4.210938 2.953125 -4.210938 C 2.464844 -4.210938 2.070312 -4.042969 1.765625 -3.703125 C 1.460938 -3.367188 1.304688 -2.917969 1.304688 -2.355469 C 1.304688 -1.804688 1.449219 -1.371094 1.738281 -1.058594 C 2.027344 -0.746094 2.414062 -0.589844 2.902344 -0.589844 C 3.316406 -0.589844 3.707031 -0.726562 4.074219 -1 Z "/>
</g>
<g id="glyph-0-1">
<path d="M 3.121094 -2.738281 L 0.496094 -2.738281 L 0.496094 -3.292969 L 1.625 -4.402344 C 1.933594 -4.707031 2.132812 -4.933594 2.21875 -5.089844 C 2.304688 -5.242188 2.347656 -5.417969 2.347656 -5.609375 C 2.347656 -5.785156 2.292969 -5.925781 2.175781 -6.039062 C 2.0625 -6.148438 1.910156 -6.203125 1.71875 -6.203125 C 1.359375 -6.203125 1.023438 -6.042969 0.710938 -5.726562 L 0.710938 -6.457031 C 0.984375 -6.695312 1.355469 -6.816406 1.824219 -6.816406 C 2.195312 -6.816406 2.488281 -6.710938 2.707031 -6.503906 C 2.929688 -6.296875 3.039062 -6.023438 3.039062 -5.683594 C 3.039062 -5.210938 2.71875 -4.667969 2.074219 -4.054688 L 1.335938 -3.359375 L 1.335938 -3.335938 L 3.121094 -3.335938 Z "/>
</g>
</g>
</defs>
<g fill="rgb(60.392157%, 44.705882%, 67.45098%)" fill-opacity="1">
<use xlink:href="#glyph-0-0" x="30" y="29.405273"/>
<use xlink:href="#glyph-0-1" x="34" y="29.405273"/>
</g>
</svg>
