<?xml version="1.0" encoding="UTF-8"?>
<svg xmlns="http://www.w3.org/2000/svg" xmlns:xlink="http://www.w3.org/1999/xlink" width="854" height="480" viewBox="0 0 854 480">
<defs>
<g>
<g id="glyph-0-0">
<path d="M 1.308594 -6.699219 C 2.023438 -7.144531 2.851562 -7.371094 3.789062 -7.371094 C 5.523438 -7.371094 6.394531 -6.457031 6.394531 -4.636719 L 6.394531 0 L 5.128906 0 L 5.128906 -1.113281 L 5.097656 -1.113281 C 4.597656 -0.257812 3.863281 0.167969 2.890625 0.167969 C 2.191406 0.167969 1.636719 -0.0195312 1.222656 -0.398438 C 0.8125 -0.773438 0.605469 -1.285156 0.605469 -1.925781 C 0.605469 -3.273438 1.402344 -4.054688 2.996094 -4.277344 L 5.128906 -4.578125 C 5.128906 -5.753906 4.644531 -6.339844 3.671875 -6.339844 C 2.808594 -6.339844 2.019531 -6.050781 1.308594 -5.46875 L 1.308594 -6.699219 M 3.445312 -3.386719 C 2.855469 -3.308594 2.445312 -3.160156 2.222656 -2.941406 C 2 -2.726562 1.886719 -2.421875 1.886719 -2.03125 C 1.886719 -1.6875 2.007812 -1.410156 2.253906 -1.191406 C 2.496094 -0.972656 2.816406 -0.867188 3.214844 -0.867188 C 3.773438 -0.867188 4.230469 -1.0625 4.589844 -1.453125 C 4.949219 -1.84375 5.128906 -2.332031 5.128906 -2.921875 L 5.128906 -3.613281 Z "/>
</g>
</g>
</defs>
<g fill="rgb(100%, 100%, 100%)" fill-opacity="1">
<use xlink:href="#glyph-0-0" x="30" y="34.107422"/>
</g>
</svg>
